<svg width="25" height="25" viewBox="0 0 25 25" fill="none" xmlns="http://www.w3.org/2000/svg">
<path d="M10.9609 4.28442C11.7644 3.59726 12.9251 3.53438 13.7949 4.10767L13.9648 4.23071L20.6133 9.50806V9.50903C21.01 9.83847 21.2383 10.3249 21.2383 10.8352V19.5461C21.2383 20.2544 20.954 20.935 20.4473 21.4368C19.9404 21.9386 19.2523 22.2208 18.5342 22.219H16.5762C16.3046 22.2168 16.0948 21.9991 16.0947 21.7424V18.6838C16.0945 17.4841 15.1161 16.5208 13.9209 16.5208H11.042C9.85206 16.5282 8.88204 17.4895 8.88184 18.6838V21.0012H8.8457L8.84668 21.7512C8.84666 21.8741 8.79657 21.993 8.70703 22.0813C8.61734 22.1696 8.49484 22.2199 8.36621 22.219H6.44434C4.9447 22.2189 3.73828 21.0131 3.73828 19.5374V10.8528C3.75048 10.3342 3.99745 9.84646 4.41309 9.52661L4.41797 9.52271L4.42383 9.51782L10.9424 4.30005L10.9521 4.29224L10.9609 4.28442Z" stroke="currentColor" stroke-width="1.5"/>
</svg>
