<svg width="24" height="24" viewBox="0 0 24 24" fill="none" xmlns="http://www.w3.org/2000/svg">
<g clip-path="url(#clip0_7518_9454)">
<path d="M8.60156 15.2002H11.8015M8.60156 11.2002H15.0015" stroke="#1E1E1E" stroke-width="1.5" stroke-linecap="round"/>
<path d="M8.20313 5.2002C6.95849 5.23753 6.21642 5.37607 5.70294 5.89001C5 6.59361 5 7.72604 5 9.99088V15.1957C5 17.4606 5 18.593 5.70294 19.2966C6.40589 20.0002 7.53726 20.0002 9.8 20.0002H13.8C16.0627 20.0002 17.1941 20.0002 17.897 19.2966C18.6 18.593 18.6 17.4606 18.6 15.1957V9.99088C18.6 7.72604 18.6 6.59361 17.897 5.89002C17.3836 5.37607 16.6415 5.23753 15.3969 5.2002" stroke="#1E1E1E" stroke-width="1.5"/>
<path d="M8.19922 5.4C8.19922 4.6268 8.82603 4 9.59922 4H13.9992C14.7724 4 15.3992 4.6268 15.3992 5.4C15.3992 6.1732 14.7724 6.8 13.9992 6.8H9.59922C8.82603 6.8 8.19922 6.1732 8.19922 5.4Z" stroke="#1E1E1E" stroke-width="1.5" stroke-linejoin="round"/>
</g>
<defs>
<clipPath id="clip0_7518_9454">
<rect width="24" height="24" fill="white"/>
</clipPath>
</defs>
</svg>
